<?xml version="1.0" standalone="no"?><!DOCTYPE svg PUBLIC "-//W3C//DTD SVG 1.1//EN" "http://www.w3.org/Graphics/SVG/1.1/DTD/svg11.dtd"><svg t="1592577257577" class="icon" viewBox="0 0 1024 1024" version="1.1" xmlns="http://www.w3.org/2000/svg" p-id="1719" xmlns:xlink="http://www.w3.org/1999/xlink" width="20" height="20"><defs><style type="text/css"></style></defs><path d="M141.3 420.1V188.8l231.2-0.1 0.1 231.3-231.3 0.1z m231.3-308.4H141.2c-42.5 0.1-76.9 34.5-77 77v231.5c0.1 42.5 34.5 76.9 77 77h231.5c42.5-0.1 76.9-34.5 77-77V188.7c-0.2-42.5-34.6-76.9-77.1-77zM141.3 882.6V651.2l231.2-0.1 0.1 231.3-231.3 0.2z m231.3-308.4H141.2c-42.5 0.1-76.9 34.5-77 77v231.5c0.1 42.5 34.5 76.9 77 77h231.5c42.5-0.1 76.9-34.5 77-77V651.1c-0.2-42.4-34.6-76.8-77.1-76.9zM719.4 468L555.8 304.4l163.4-163.6 163.7 163.5L719.4 468z m218-218L773.7 86.4c-30.1-30-78.7-30-108.8 0L501.3 250a76.744 76.744 0 0 0-22.5 54.3c-0.1 20.5 8 40.1 22.5 54.6L665 522.6c30.1 30 78.8 30 108.8 0l163.7-163.7c29.9-30.2 29.9-78.9-0.1-108.9zM603.7 882.6V651.2l231.2-0.1 0.1 231.3-231.3 0.2z m231.4-308.4H603.6c-42.5 0.1-76.9 34.5-77 77v231.5c0.1 42.5 34.5 76.9 77 77h231.5c42.5-0.1 76.9-34.5 77-77V651.1c-0.1-42.4-34.6-76.8-77-76.9z" fill="#2c2c2c" p-id="1720"></path></svg>